<svg width="55" height="36" viewBox="0 0 55 36" fill="none" xmlns="http://www.w3.org/2000/svg">
<path d="M17.048 11.288C17.176 10.648 17.24 9.992 17.24 9.32C17.24 6.216 15.72 4.664 12.68 4.664C11.304 4.664 10.136 4.952 9.176 5.528C8.28 6.584 7.832 7.848 7.832 9.32C7.832 10.28 8.248 11.112 9.08 11.816C9.912 12.488 10.936 13.016 12.152 13.4C13.4 13.784 14.744 14.264 16.184 14.84C17.624 15.416 18.952 16.04 20.168 16.712C21.416 17.352 22.456 18.328 23.288 19.64C24.12 20.92 24.536 22.44 24.536 24.2C24.536 27.56 23.24 30.296 20.648 32.408C18.088 34.52 15 35.576 11.384 35.576C8.472 35.576 5.992 34.856 3.944 33.416C1.928 31.944 0.92 29.896 0.92 27.272C0.92 25.928 1.32 24.808 2.12 23.912C2.952 22.984 3.928 22.52 5.048 22.52C6.2 22.52 7.048 22.664 7.592 22.952C7.336 23.912 7.208 24.776 7.208 25.544C7.208 27.272 7.688 28.648 8.648 29.672C9.64 30.664 11 31.16 12.728 31.16C14.456 31.16 15.848 30.712 16.904 29.816C17.96 28.92 18.488 27.736 18.488 26.264C18.488 24.76 17.896 23.528 16.712 22.568C15.56 21.608 14.152 20.84 12.488 20.264C10.824 19.688 9.16 19.08 7.496 18.44C5.832 17.8 4.408 16.856 3.224 15.608C2.072 14.328 1.496 12.728 1.496 10.808C1.496 7.8 2.792 5.304 5.384 3.32C8.008 1.336 10.968 0.343997 14.264 0.343997C16.696 0.343997 18.792 0.839997 20.552 1.832C22.344 2.792 23.24 4.264 23.24 6.248C23.24 7.688 22.776 8.92 21.848 9.944C20.92 10.936 19.752 11.432 18.344 11.432C17.96 11.432 17.528 11.384 17.048 11.288Z" fill="#0094FF"/>
<path d="M29.1211 2.456C33.7291 1.24 37.7451 0.631999 41.1691 0.631999C48.4971 0.631999 52.1611 3.176 52.1611 8.264C52.1611 11.368 50.7051 13.736 47.7931 15.368C49.7451 15.848 51.3611 16.776 52.6411 18.152C53.9211 19.496 54.5611 21.192 54.5611 23.24C54.5611 27.08 53.1371 30.056 50.2891 32.168C47.4411 34.248 43.9211 35.288 39.7291 35.288C35.5371 35.288 31.9051 34.456 28.8331 32.792C29.8251 29.336 30.3211 24.68 30.3211 18.824C30.3211 12.936 29.9211 7.48 29.1211 2.456ZM36.3691 30.104C37.7771 30.552 39.1851 30.776 40.5931 30.776C42.8011 30.776 44.6251 30.232 46.0651 29.144C47.5051 28.024 48.2251 26.456 48.2251 24.44C48.2251 20.6 46.1451 18.68 41.9851 18.68C40.0011 18.68 37.9851 19.096 35.9371 19.928C35.9371 23.16 36.0811 26.552 36.3691 30.104ZM35.8891 15.704C36.3371 15.608 36.9931 15.496 37.8571 15.368C38.7531 15.24 39.4411 15.128 39.9211 15.032C40.4011 14.936 40.9931 14.792 41.6971 14.6C42.4331 14.408 42.9931 14.184 43.3771 13.928C43.7931 13.64 44.2091 13.288 44.6251 12.872C45.4251 12.072 45.8251 10.904 45.8251 9.368C45.8251 6.392 44.0491 4.904 40.4971 4.904C39.3451 4.904 37.9371 5.096 36.2731 5.48C36.0171 12.04 35.8891 15.448 35.8891 15.704Z" fill="black"/>
</svg>
