<svg width="218" height="37" viewBox="0 0 218 37" fill="none" xmlns="http://www.w3.org/2000/svg">
<path d="M17.048 12.288C17.176 11.648 17.24 10.992 17.24 10.32C17.24 7.216 15.72 5.664 12.68 5.664C11.304 5.664 10.136 5.952 9.176 6.528C8.28 7.584 7.832 8.848 7.832 10.32C7.832 11.28 8.248 12.112 9.08 12.816C9.912 13.488 10.936 14.016 12.152 14.4C13.4 14.784 14.744 15.264 16.184 15.84C17.624 16.416 18.952 17.04 20.168 17.712C21.416 18.352 22.456 19.328 23.288 20.64C24.12 21.92 24.536 23.44 24.536 25.2C24.536 28.56 23.24 31.296 20.648 33.408C18.088 35.52 15 36.576 11.384 36.576C8.472 36.576 5.992 35.856 3.944 34.416C1.928 32.944 0.92 30.896 0.92 28.272C0.92 26.928 1.32 25.808 2.12 24.912C2.952 23.984 3.928 23.52 5.048 23.52C6.2 23.52 7.048 23.664 7.592 23.952C7.336 24.912 7.208 25.776 7.208 26.544C7.208 28.272 7.688 29.648 8.648 30.672C9.64 31.664 11 32.16 12.728 32.16C14.456 32.16 15.848 31.712 16.904 30.816C17.96 29.92 18.488 28.736 18.488 27.264C18.488 25.76 17.896 24.528 16.712 23.568C15.56 22.608 14.152 21.84 12.488 21.264C10.824 20.688 9.16 20.08 7.496 19.44C5.832 18.8 4.408 17.856 3.224 16.608C2.072 15.328 1.496 13.728 1.496 11.808C1.496 8.8 2.792 6.304 5.384 4.32C8.008 2.336 10.968 1.344 14.264 1.344C16.696 1.344 18.792 1.84 20.552 2.832C22.344 3.792 23.24 5.264 23.24 7.248C23.24 8.688 22.776 9.92 21.848 10.944C20.92 11.936 19.752 12.432 18.344 12.432C17.96 12.432 17.528 12.384 17.048 12.288Z" fill="#0094FF"/>
<path d="M37.1851 36.576C33.6651 36.576 31.0731 35.552 29.4091 33.504C27.7451 31.424 26.9131 28.544 26.9131 24.864C26.9131 21.152 28.0171 17.936 30.2251 15.216C32.4331 12.496 35.2651 11.136 38.7211 11.136C45.8251 11.136 49.3771 15.136 49.3771 23.136C49.3771 26.88 48.2251 30.064 45.9211 32.688C43.6171 35.28 40.7051 36.576 37.1851 36.576ZM33.7291 16.416C33.1531 18.272 32.8651 20.128 32.8651 21.984C32.8651 23.84 32.9291 25.28 33.0571 26.304C33.1851 27.328 33.4251 28.352 33.7771 29.376C34.5131 31.456 35.9531 32.496 38.0971 32.496C40.2731 32.496 41.6971 31.92 42.3691 30.768C43.0731 29.616 43.4251 27.84 43.4251 25.44C43.4251 18.624 41.8091 15.216 38.5771 15.216C36.7211 15.216 35.1051 15.616 33.7291 16.416ZM62.7043 36.576C59.2803 36.576 56.6563 35.664 54.8323 33.84C53.0083 32.016 52.0963 29.392 52.0963 25.968C52.0963 21.808 53.2643 18.304 55.6003 15.456C57.9363 12.576 61.0403 11.136 64.9123 11.136C67.1203 11.136 68.9123 11.584 70.2883 12.48C71.6643 13.344 72.3523 14.64 72.3523 16.368C72.3523 17.488 71.9043 18.496 71.0083 19.392C70.1123 20.256 69.1043 20.688 67.9843 20.688C67.7283 20.688 67.4083 20.656 67.0243 20.592C67.1203 20.176 67.1683 19.808 67.1683 19.488C67.1683 18.336 66.8643 17.36 66.2563 16.56C65.6483 15.76 64.6403 15.36 63.2323 15.36C61.8243 15.36 60.5123 15.936 59.2963 17.088C58.4323 19.328 58.0003 22.128 58.0003 25.488C58.0003 30.064 59.7283 32.352 63.1843 32.352C65.0403 32.352 66.4163 31.76 67.3123 30.576C68.2403 29.36 68.7043 28 68.7043 26.496C69.7923 26.496 70.7363 26.768 71.5363 27.312C72.3363 27.856 72.7363 28.608 72.7363 29.568C72.7363 31.648 71.6643 33.344 69.5203 34.656C67.4083 35.936 65.1363 36.576 62.7043 36.576ZM77.1568 12.144C78.1808 11.856 79.2048 11.712 80.2288 11.712C81.2848 11.712 82.1808 12.032 82.9168 12.672C83.6528 13.312 84.0208 14.144 84.0208 15.168C84.0208 16.16 83.8448 17.904 83.4928 20.4C83.1728 22.864 83.0128 24.784 83.0128 26.16C83.0128 29.744 83.3488 32.832 84.0208 35.424C83.0288 35.808 81.9568 36 80.8047 36C79.6528 36 78.7408 35.744 78.0688 35.232C77.3968 34.688 77.0608 33.92 77.0608 32.928C77.0608 31.904 77.2528 30.24 77.6367 27.936C78.0208 25.632 78.2128 23.728 78.2128 22.224C78.2128 18.224 77.8608 14.864 77.1568 12.144ZM77.7808 1.296C78.9008 0.783998 80.0048 0.527999 81.0928 0.527999C82.1808 0.527999 82.9808 0.815999 83.4928 1.392C84.0368 1.936 84.3088 2.752 84.3088 3.84C84.3088 4.928 83.9408 5.888 83.2048 6.72C82.5008 7.552 81.5728 7.968 80.4208 7.968C78.0528 7.968 76.8688 6.736 76.8688 4.272C76.8688 3.184 77.1728 2.192 77.7808 1.296ZM97.9351 36.576C94.4151 36.576 91.8231 35.552 90.1591 33.504C88.4951 31.424 87.6631 28.544 87.6631 24.864C87.6631 21.152 88.7671 17.936 90.9751 15.216C93.1831 12.496 96.0151 11.136 99.4711 11.136C106.575 11.136 110.127 15.136 110.127 23.136C110.127 26.88 108.975 30.064 106.671 32.688C104.367 35.28 101.455 36.576 97.9351 36.576ZM94.4791 16.416C93.9031 18.272 93.6151 20.128 93.6151 21.984C93.6151 23.84 93.6791 25.28 93.8071 26.304C93.9351 27.328 94.1751 28.352 94.5271 29.376C95.2631 31.456 96.7031 32.496 98.8471 32.496C101.023 32.496 102.447 31.92 103.119 30.768C103.823 29.616 104.175 27.84 104.175 25.44C104.175 18.624 102.559 15.216 99.3271 15.216C97.4711 15.216 95.8551 15.616 94.4791 16.416ZM114.574 3.456C119.182 2.24 123.198 1.632 126.622 1.632C133.95 1.632 137.614 4.176 137.614 9.264C137.614 12.368 136.158 14.736 133.246 16.368C135.198 16.848 136.814 17.776 138.094 19.152C139.374 20.496 140.014 22.192 140.014 24.24C140.014 28.08 138.59 31.056 135.742 33.168C132.894 35.248 129.374 36.288 125.182 36.288C120.99 36.288 117.358 35.456 114.286 33.792C115.278 30.336 115.774 25.68 115.774 19.824C115.774 13.936 115.374 8.48 114.574 3.456ZM121.822 31.104C123.23 31.552 124.638 31.776 126.046 31.776C128.254 31.776 130.078 31.232 131.518 30.144C132.958 29.024 133.678 27.456 133.678 25.44C133.678 21.6 131.598 19.68 127.438 19.68C125.454 19.68 123.438 20.096 121.39 20.928C121.39 24.16 121.534 27.552 121.822 31.104ZM121.342 16.704C121.79 16.608 122.446 16.496 123.31 16.368C124.206 16.24 124.894 16.128 125.374 16.032C125.854 15.936 126.446 15.792 127.15 15.6C127.886 15.408 128.446 15.184 128.83 14.928C129.246 14.64 129.662 14.288 130.078 13.872C130.878 13.072 131.278 11.904 131.278 10.368C131.278 7.392 129.502 5.904 125.95 5.904C124.798 5.904 123.39 6.096 121.726 6.48C121.47 13.04 121.342 16.448 121.342 16.704ZM153.154 36.576C149.634 36.576 147.042 35.552 145.378 33.504C143.714 31.424 142.882 28.544 142.882 24.864C142.882 21.152 143.986 17.936 146.194 15.216C148.402 12.496 151.234 11.136 154.69 11.136C161.794 11.136 165.346 15.136 165.346 23.136C165.346 26.88 164.194 30.064 161.89 32.688C159.586 35.28 156.674 36.576 153.154 36.576ZM149.698 16.416C149.122 18.272 148.834 20.128 148.834 21.984C148.834 23.84 148.898 25.28 149.026 26.304C149.154 27.328 149.394 28.352 149.746 29.376C150.482 31.456 151.922 32.496 154.066 32.496C156.242 32.496 157.666 31.92 158.338 30.768C159.042 29.616 159.394 27.84 159.394 25.44C159.394 18.624 157.778 15.216 154.546 15.216C152.69 15.216 151.074 15.616 149.698 16.416ZM177.857 36.576C174.337 36.576 171.745 35.552 170.081 33.504C168.417 31.424 167.585 28.544 167.585 24.864C167.585 21.152 168.689 17.936 170.897 15.216C173.105 12.496 175.937 11.136 179.393 11.136C186.497 11.136 190.049 15.136 190.049 23.136C190.049 26.88 188.897 30.064 186.593 32.688C184.289 35.28 181.377 36.576 177.857 36.576ZM174.401 16.416C173.825 18.272 173.537 20.128 173.537 21.984C173.537 23.84 173.601 25.28 173.729 26.304C173.857 27.328 174.097 28.352 174.449 29.376C175.185 31.456 176.625 32.496 178.769 32.496C180.945 32.496 182.369 31.92 183.041 30.768C183.745 29.616 184.097 27.84 184.097 25.44C184.097 18.624 182.481 15.216 179.249 15.216C177.393 15.216 175.777 15.616 174.401 16.416ZM199.776 20.88C200.896 18.512 202.56 16.352 204.768 14.4C207.008 12.416 209.264 11.424 211.536 11.424C214.736 11.424 216.336 13.12 216.336 16.512C216.336 18.24 215.536 20.096 213.936 22.08C212.368 24.032 210.608 25.584 208.656 26.736C209.552 28.304 210.656 29.504 211.968 30.336C213.312 31.136 215.072 31.776 217.248 32.256C217.248 33.504 216.944 34.496 216.336 35.232C215.76 35.936 214.928 36.288 213.84 36.288C211.664 36.288 209.536 35.248 207.456 33.168C205.376 31.056 203.808 28.704 202.752 26.112C204.8 25.088 206.56 23.872 208.032 22.464C209.536 21.056 210.288 19.648 210.288 18.24C210.288 16.832 209.856 16.128 208.992 16.128C207.328 16.128 205.472 17.648 203.424 20.688C201.408 23.728 200.24 26.256 199.92 28.272C199.984 29.2 200.304 31.584 200.88 35.424C199.888 35.808 198.8 36 197.616 36C195.152 36 193.92 34.8 193.92 32.4C193.92 31.248 194.096 28.992 194.448 25.632C194.8 22.24 194.976 19.52 194.976 17.472C194.976 10.656 194.592 5.024 193.824 0.575998C194.848 0.191998 195.904 -2.86102e-06 196.992 -2.86102e-06C198.08 -2.86102e-06 198.976 0.367997 199.68 1.104C200.416 1.808 200.784 2.784 200.784 4.032C200.784 5.28 200.608 7.856 200.256 11.76C199.936 15.664 199.776 18.704 199.776 20.88Z" fill="black"/>
</svg>
